<?xml version="1.0"?>
<svg version="1.1" xmlns="http://www.w3.org/2000/svg" width="300" height="40" style=""><path fill="#5a32c7" d="M41.488,28.792l2.716-0.056q1.008,0,1.008,0.14q0,0.364-4.088,0.644q-2.604,5.096-2.604,6.944q0,1.288,0.812,1.288q0.308,0,0.77-0.378t0.56-0.378t0.098,0.14q-0.14,0.504-0.854,0.84t-1.204,0.336t-0.77-0.056q-0.672-0.252-0.672-1.624q0-2.828,2.156-7.196l-3.36,0.084q-3.752,3.668-7.532,6.44q-5.656,4.116-8.848,4.116q-0.196,0-0.392-0.028q-4.312-0.364-4.312-4.424q0-2.408,1.512-5.096q2.016-3.584,5.516-6.118t6.272-2.534t2.772,2.044q0,1.372-0.84,3.052t-1.708,2.128q-0.084,0.028-0.182,0.028t-0.098-0.056l0.924-1.512q0.952-1.484,0.952-2.604t-0.49-1.806t-1.554-0.686q-2.184,0-5.222,2.436t-4.62,5.992t-1.582,5.544q0,2.996,3.052,2.996q2.912,0,7.896-3.752q2.212-1.652,7.196-6.244q-0.98,0.056-1.82,0.196q-1.792,0.336-1.68-0.112q0.112-1.036,1.064-1.036q1.848,0.224,3.108,0.224q2.408-2.212,7.196-7.252q3.22-3.388,3.92-3.388q0.308,0,0.308,0.476t-0.252,1.484t-0.56,1.232q-0.644,0.448-1.204,1.218t-1.596,2.884t-1.764,3.43z M43.728,21.96l-7.168,6.72l1.652,0q0.588,0.028,1.456,0.028q0.812-1.596,4.06-6.748z M54.09276,28.428l0.392-0.084q0.308,0,0.588,0.252t0.28,0.392t-1.736,2.702t-1.736,3.57q0,0.084,0.028,0.168q0.14,0.644,0.616,0.644q1.456,0,5.32-4.816q0.084-0.112,0.196-0.112t0.112,0.21t-0.252,0.546q-3.584,4.788-5.46,4.788q-0.252,0-0.476-0.084q-1.232-0.476-1.232-1.848q0-0.476,0.112-0.952l-1.736,1.68q-1.652,1.456-2.394,1.456t-1.414-0.476q-0.756-0.56-0.756-1.484q0-2.044,2.856-4.886t5.236-2.842q0.924,0,1.232,0.644q0.084,0.224,0.14,0.378t0.084,0.154z M45.72076,35.316q0,1.008,0.7,1.008q1.624,0,4.424-3.556l2.968-4.088q-0.224-0.392-0.728-0.392q-1.708,0-4.536,2.646t-2.828,4.382z M63.28152,36.94q-2.1,0-2.1-2.324q0-1.176,0.616-2.576t1.344-2.352q-0.14,0.028-0.364,0.028q-0.672,0-1.12-0.952l-2.072,2.688q-1.736,2.156-2.016,2.156q-0.14,0-0.14-0.112q0-0.28,0.476-0.812q2.436-2.828,3.444-4.788q0.644-2.436,1.624-2.436q0.644,0,0.644,0.56t-0.7,1.428l-0.672,0.896q0,0.588,0.868,0.588q0.504,0,1.12-0.364l0.728-0.448q0.056-0.028,0.28-0.028t0.476,0.28t0.168,0.504l-1.932,2.436q-1.792,2.296-1.792,3.626t1.232,1.33q1.288,0,3.164-1.372q1.12-0.812,2.044-1.82q0.868-1.008,0.952-1.008q0.196,0,0.196,0.21t-0.252,0.49l-0.896,1.008q-0.756,0.784-1.68,1.512q-2.212,1.652-3.64,1.652z M77.14628,30.864q0,0.98-1.876,3.276q-2.212,2.716-3.78,2.716l-0.448,0q-0.728,0-1.148-0.756q-0.336-0.532-0.336-1.176q0-1.68,2.45-4.718t3.962-3.038q1.428,0,1.428,1.512q0,0.392-0.14,1.008q0.028,0.084,0.532,0.084t1.54-0.532q-0.028,0.476-2.212,1.372q0.028,0.112,0.028,0.252z M75.32628,29.408q-0.952,0-2.702,2.24t-1.75,3.304t0.672,1.064q1.204,0,3.052-2.184t1.848-3.136q-0.448-0.252-1.12-1.288z M83.45104,27.952q0.756,0,0.756,0.588q0,0.168-0.084,0.336q-2.52,3.5-3.024,5.292q6.524-6.524,7.924-6.524q0.14-0.028,0.252-0.028q0.784,0,0.784,0.7q0,0.14-0.056,0.28t-1.12,1.512q-1.232,1.456-2.086,2.8t-0.854,2.24t0.392,0.896q1.232,0,4.284-3.388q0.056-0.056,0.196-0.252q0.42-0.504,0.504-0.504t0.084,0.28t-0.392,0.728q-3.472,3.948-4.928,3.948q-1.372,0-1.372-1.512t1.12-3.472l1.792-2.912q-1.904,1.4-3.388,3.066t-2.702,3.234t-1.414,1.568q-0.42,0-0.658-0.35t-0.238-0.868t0.364-1.386t0.924-2.1l-1.68,1.764q-0.616,0.616-0.77,0.616t-0.154-0.182t0.224-0.406q1.036-1.036,1.792-1.988q0.728-0.952,2.996-3.64q0.252-0.336,0.532-0.336z M103.48056,36.1q-2.464,1.904-3.612,1.904q-0.616,0-0.91-0.602t-0.294-1.302q0-1.344,1.134-4.032t2.17-2.688q0.532,0,0.91,2.1t0.77,3.052q1.904-2.016,5.516-6.72q4.536-5.964,6.02-6.524q0.504-0.196,1.036-0.196t0.882,0.224t0.35,0.56q0,0.476-0.812,0.56q-0.98,0.532-3.024,2.576q-2.044,1.988-3.276,3.724q-2.996,4.172-6.16,6.804q1.568,2.324,4.928,2.324q0.364,0,1.092-0.056q7.784-0.728,11.032-6.748q1.316-2.408,1.316-4.76t-1.708-4.228q-1.372-1.54-2.982-1.904t-3.29-0.364q-4.312,0-7.952,1.988q-3.836,2.1-3.836,4.704q0,0.7,0.378,1.148t0.518,0.504l-0.168,0q-0.728-0.14-1.288-0.728q-0.616-0.728-0.616-1.54q0-2.8,3.514-4.816t8.246-2.016q2.184,0,4.48,0.504t4.172,2.408q2.156,2.24,2.156,5.068q0,2.1-1.232,4.34q-2.128,3.864-6.356,5.656q-3.388,1.428-7.308,1.428t-5.796-2.352z M99.67256,35.988q0,0.868,0.336,1.512q1.204-0.532,2.912-2.212q-0.812-1.344-1.022-2.114t-0.294-2.03q-1.932,2.772-1.932,4.844z M103.67656,28.148q0.028,0,0.056-0.028q0,0.056-0.014,0.056t-0.042-0.028z M134.56532,28.428l0.392-0.084q0.308,0,0.588,0.252t0.28,0.392t-1.736,2.702t-1.736,3.57q0,0.084,0.028,0.168q0.14,0.644,0.616,0.644q1.456,0,5.32-4.816q0.084-0.112,0.196-0.112t0.112,0.21t-0.252,0.546q-3.584,4.788-5.46,4.788q-0.252,0-0.476-0.084q-1.232-0.476-1.232-1.848q0-0.476,0.112-0.952l-1.736,1.68q-1.652,1.456-2.394,1.456t-1.414-0.476q-0.756-0.56-0.756-1.484q0-2.044,2.856-4.886t5.236-2.842q0.924,0,1.232,0.644q0.084,0.224,0.14,0.378t0.084,0.154z M126.19332,35.316q0,1.008,0.7,1.008q1.624,0,4.424-3.556l2.968-4.088q-0.224-0.392-0.728-0.392q-1.708,0-4.536,2.646t-2.828,4.382z M142.55008,27.952q0.756,0,0.756,0.588q0,0.168-0.084,0.336q-2.52,3.5-3.024,5.292q6.524-6.524,7.924-6.524q0.14-0.028,0.252-0.028q0.784,0,0.784,0.7q0,0.14-0.056,0.28t-1.12,1.512q-1.232,1.456-2.086,2.8t-0.854,2.24t0.392,0.896q1.232,0,4.284-3.388q0.056-0.056,0.196-0.252q0.42-0.504,0.504-0.504t0.084,0.28t-0.392,0.728q-3.472,3.948-4.928,3.948q-1.372,0-1.372-1.512t1.12-3.472l1.792-2.912q-1.904,1.4-3.388,3.066t-2.702,3.234t-1.414,1.568q-0.42,0-0.658-0.35t-0.238-0.868t0.364-1.386t0.924-2.1l-1.68,1.764q-0.616,0.616-0.77,0.616t-0.154-0.182t0.224-0.406q1.036-1.036,1.792-1.988q0.728-0.952,2.996-3.64q0.252-0.336,0.532-0.336z M157.43684,25.642q0.378,0.266,0.378,0.63t-0.35,0.63t-0.77,0.266t-0.77-0.308t-0.35-0.7q0-0.784,1.064-0.784q0.42,0,0.798,0.266z M151.57084,37.108q-1.428,0-1.428-1.848q0-1.512,1.652-4.186t2.66-2.702q0.28,0,0.63,0.224t0.35,0.448q-0.14,0.196-0.336,0.434t-0.42,0.518t-0.616,0.798t-0.756,0.994q-2.1,2.716-2.1,3.738t0.7,1.022q0.588,0,1.596-0.644q2.352-1.456,3.724-3.192q0.504-0.644,0.686-0.644t0.182,0.224t-0.644,0.896t-1.022,1.064t-0.518,0.518t-0.518,0.476t-0.574,0.49t-0.56,0.42t-0.644,0.406t-0.644,0.294q-0.588,0.252-1.4,0.252z M159.5556,37.164q-0.308,0-0.56-0.084q-1.792-0.504-1.792-2.016q0-1.96,2.464-4.536t4.424-2.576q0.644,0,1.05,0.35t0.406,0.854q0,1.568-2.366,2.996t-3.85,1.428q-0.224,0-0.392-0.056q-0.42,0.756-0.42,1.596q0,1.456,1.386,1.456t3.598-1.876q1.708-1.372,2.912-2.912q0.252-0.336,0.434-0.336t0.182,0.168t-0.224,0.476q-1.512,1.988-3.64,3.528t-3.612,1.54z M164.8476,29.1q0-0.336-0.714-0.336t-2.03,1.092q-1.764,1.456-2.744,3.052q0.168,0.056,0.364,0.056q1.064,0,2.842-1.134t2.226-2.478q0.056-0.14,0.056-0.252z M168.57636,36.24q0.924,0,2.38-0.98t2.828-2.66q0.336-0.448,0.532-0.448t0.196,0.168t-1.148,1.456q-2.8,3.08-4.676,3.08q-0.924,0-1.568-0.434t-0.644-1.344t0.476-2.114q0.812-1.904,2.604-4.788q3.276-5.32,4.648-5.32q0.28,0,0.574,0.21t0.322,0.462q-0.644,0.868-2.478,3.332t-2.534,3.542t-1.05,1.61t-0.518,0.826t-0.392,0.77q-0.476,0.952-0.476,1.792t0.924,0.84z M196.52988,29.016q-1.68,0-2.828-0.77t-1.148-1.946q0-1.484,1.932-2.968q0.336-0.252,0.504-0.252t0.168,0.112q0,0.28-0.448,0.448q-1.568,1.26-1.568,2.548q0,0.924,0.84,1.554t2.1,0.63q2.744,0,5.18-2.632q1.26-1.372,1.26-3.164t-1.344-2.66q-1.12-0.784-3.024-0.784q-2.744,0-5.516,1.372q-3.416,1.652-6.174,5.138t-2.758,6.706q0,2.548,1.736,3.934t4.312,1.386q2.94,0,5.768-1.428q2.156-1.12,3.724-2.856q0.448-0.504,0.7-0.504q0.168,0,0.168,0.294t-0.308,0.602q-1.484,1.568-4.284,3.024q-3.444,1.82-6.93,1.82t-5.194-2.296q-1.148-1.512-1.148-3.612q0-0.924,0.224-1.988q0.756-3.584,3.976-6.972q2.324-2.436,5.516-3.794t6.048-1.358q1.512,0,2.632,0.364q3.052,0.952,3.052,3.836q0,1.764-1.036,3.052q-2.576,3.164-6.132,3.164z M209.58264,36.688q-1.652,0-1.652-1.932q0-1.092,0.77-2.422t1.89-3.122q-3.584,1.792-6.496,5.292q-1.624,2.436-1.904,2.436q-0.812,0-0.812-0.476q0-0.252,0.336-0.896q2.716-4.844,4.116-7.084q3.332-5.348,4.704-5.796q0.056-0.028,0.112-0.028q0.364,0,0.504,0.588q-0.084,0.588-2.912,4.256q-2.94,3.724-3.332,4.872q1.036-0.756,3.612-2.548q2.772-1.932,3.668-1.932t0.896,0.7q0,0.112-0.014,0.154t-1.946,2.646t-1.932,3.836q0,0.644,0.476,0.644q1.512-0.056,4.536-3.64q0.252-0.252,0.378-0.252t0.126,0.168q0,0.56-2.772,3.024q-1.736,1.512-2.352,1.512z M221.5854,25.642q0.378,0.266,0.378,0.63t-0.35,0.63t-0.77,0.266t-0.77-0.308t-0.35-0.7q0-0.784,1.064-0.784q0.42,0,0.798,0.266z M215.7194,37.108q-1.428,0-1.428-1.848q0-1.512,1.652-4.186t2.66-2.702q0.28,0,0.63,0.224t0.35,0.448q-0.14,0.196-0.336,0.434t-0.42,0.518t-0.616,0.798t-0.756,0.994q-2.1,2.716-2.1,3.738t0.7,1.022q0.588,0,1.596-0.644q2.352-1.456,3.724-3.192q0.504-0.644,0.686-0.644t0.182,0.224t-0.644,0.896t-1.022,1.064t-0.518,0.518t-0.518,0.476t-0.574,0.49t-0.56,0.42t-0.644,0.406t-0.644,0.294q-0.588,0.252-1.4,0.252z M223.70416,37.164q-0.308,0-0.56-0.084q-1.792-0.504-1.792-2.016q0-1.96,2.464-4.536t4.424-2.576q0.644,0,1.05,0.35t0.406,0.854q0,1.568-2.366,2.996t-3.85,1.428q-0.224,0-0.392-0.056q-0.42,0.756-0.42,1.596q0,1.456,1.386,1.456t3.598-1.876q1.708-1.372,2.912-2.912q0.252-0.336,0.434-0.336t0.182,0.168t-0.224,0.476q-1.512,1.988-3.64,3.528t-3.612,1.54z M228.99616,29.1q0-0.336-0.714-0.336t-2.03,1.092q-1.764,1.456-2.744,3.052q0.168,0.056,0.364,0.056q1.064,0,2.842-1.134t2.226-2.478q0.056-0.14,0.056-0.252z M244.09292,36.464q-1.904,0-1.904-1.764q0-1.008,0.896-2.758t1.876-2.954q-1.736,0.84-4.004,3.038t-3.164,4.606q-0.14,0.224-0.476,0.224q-0.672,0-0.672-0.756q0.28-1.54,1.26-3.528q0.308-0.644,1.82-3.752q-2.184,1.428-3.71,3.066t-2.828,3.29t-1.47,1.652q-0.364,0-0.63-0.336t-0.266-0.672q0-0.504,1.456-3.696l-1.68,1.764q-0.616,0.616-0.77,0.616t-0.154-0.182t0.224-0.406q1.036-1.036,1.848-2.072t2.688-3.696q0.308-0.42,0.868-0.42t0.56,0.532q0,0.196-1.484,2.73t-1.652,3.178q1.148-1.26,3.444-3.388q3.444-3.192,4.536-3.192q0.336,0,0.616,0.196t0.28,0.434t-1.092,2.114q-1.064,1.932-1.176,2.296q3.108-2.604,3.108-2.632q2.632-2.044,3.78-2.044q0.336,0,0.63,0.21t0.294,0.49q0,0.056-1.82,2.366t-2.044,3.794q-0.056,0.504,0.196,0.756t0.91,0.252t1.932-0.91t2.59-2.45q0.504-0.56,0.686-0.56t0.182,0.14q0,0.196-0.252,0.448q-1.372,1.652-2.954,2.814t-2.478,1.162z M251.04168,37.164q-0.308,0-0.56-0.084q-1.792-0.504-1.792-2.016q0-1.96,2.464-4.536t4.424-2.576q0.644,0,1.05,0.35t0.406,0.854q0,1.568-2.366,2.996t-3.85,1.428q-0.224,0-0.392-0.056q-0.42,0.756-0.42,1.596q0,1.456,1.386,1.456t3.598-1.876q1.708-1.372,2.912-2.912q0.252-0.336,0.434-0.336t0.182,0.168t-0.224,0.476q-1.512,1.988-3.64,3.528t-3.612,1.54z M256.33368,29.1q0-0.336-0.714-0.336t-2.03,1.092q-1.764,1.456-2.744,3.052q0.168,0.056,0.364,0.056q1.064,0,2.842-1.134t2.226-2.478q0.056-0.14,0.056-0.252z M259.92244,35.652q-1.12,0.784-1.596,0.784q-0.644,0-0.644-0.7q0-0.252,0.168-0.616t0.336-0.364q0.252,0,0.112,0.42q-0.084,0.42,0.252,0.42t0.812-0.336l-1.064-0.812q-0.056-0.056-0.056-0.196t0.28-0.406t0.434-0.266t1.358,0.952q3.472-3.92,5.096-5.152q-2.212-0.672-3.276-0.672q-0.308,0-0.588,0.042t-0.602,0.336t-0.322,0.658t0.308,0.602t0.308,0.378t-0.21,0.14t-0.686-0.56q-0.448-0.56-0.448-1.148q0-0.98,1.428-1.288q0.756-0.14,1.54-0.14t3.864,1.008q0.392-0.224,0.84-0.224q1.176,0,1.176,0.7q0,0.28-0.364,0.518t-0.868,0.238t-0.924-0.196q-2.66,1.652-5.712,5.208l1.008,0.784q1.204,0.784,2.8,0.784t2.352-0.504t0.756-1.288q0-0.364-0.14-0.686t0.252-0.322q0.14,0,0.28,0.322t0.14,0.77q0,1.12-1.064,1.848t-2.744,0.728q-1.848,0-3.052-0.7q-0.476-0.252-1.54-1.064z M276.9652,25.642q0.378,0.266,0.378,0.63t-0.35,0.63t-0.77,0.266t-0.77-0.308t-0.35-0.7q0-0.784,1.064-0.784q0.42,0,0.798,0.266z M271.0992,37.108q-1.428,0-1.428-1.848q0-1.512,1.652-4.186t2.66-2.702q0.28,0,0.63,0.224t0.35,0.448q-0.14,0.196-0.336,0.434t-0.42,0.518t-0.616,0.798t-0.756,0.994q-2.1,2.716-2.1,3.738t0.7,1.022q0.588,0,1.596-0.644q2.352-1.456,3.724-3.192q0.504-0.644,0.686-0.644t0.182,0.224t-0.644,0.896t-1.022,1.064t-0.518,0.518t-0.518,0.476t-0.574,0.49t-0.56,0.42t-0.644,0.406t-0.644,0.294q-0.588,0.252-1.4,0.252z M279.08396,37.164q-0.308,0-0.56-0.084q-1.792-0.504-1.792-2.016q0-1.96,2.464-4.536t4.424-2.576q0.644,0,1.05,0.35t0.406,0.854q0,1.568-2.366,2.996t-3.85,1.428q-0.224,0-0.392-0.056q-0.42,0.756-0.42,1.596q0,1.456,1.386,1.456t3.598-1.876q1.708-1.372,2.912-2.912q0.252-0.336,0.434-0.336t0.182,0.168t-0.224,0.476q-1.512,1.988-3.64,3.528t-3.612,1.54z M284.37596,29.1q0-0.336-0.714-0.336t-2.03,1.092q-1.764,1.456-2.744,3.052q0.168,0.056,0.364,0.056q1.064,0,2.842-1.134t2.226-2.478q0.056-0.14,0.056-0.252z"/><path fill="#" d=""/></svg>
